<svg xmlns="http://www.w3.org/2000/svg" viewBox="0 0 78 12"><path d="M7 9.6l-3.527 1.254.103-3.742-2.282-2.966 3.59-1.058L7 0l2.116 3.088 3.59 1.058-2.282 2.966.103 3.742zm48 0l-3.527 1.254.103-3.742-2.282-2.966 3.59-1.058L55 0l2.116 3.088 3.59 1.058-2.282 2.966.103 3.742zm-32 0l-3.527 1.254.103-3.742-2.282-2.966 3.59-1.058L23 0l2.116 3.088 3.59 1.058-2.282 2.966.103 3.742zm48 0l-3.527 1.254.103-3.742-2.282-2.966 3.59-1.058L71 0l2.116 3.088 3.59 1.058-2.282 2.966.103 3.742zm-32 0l-3.527 1.254.103-3.742-2.282-2.966 3.59-1.058L39 0l2.116 3.088 3.59 1.058-2.282 2.966.103 3.742z" fill="#C0CAD7" fill-rule="evenodd" stroke="#C0CAD7"/></svg>