<svg xmlns="http://www.w3.org/2000/svg" width="49" height="39"><path fill="#ec1b2f" d="M6.12 19.329c-.237-2.074-.435-4.152-.466-6.24a114.204 114.204 0 010-3.501c.007-.909.07-1.816.187-2.716a8.08 8.08 0 01.705-2.457 5.928 5.928 0 013.113-2.93 11.577 11.577 0 012.54-.735C13.23.556 14.27.447 15.313.352c2.09-.188 4.184-.276 6.286-.318 1.865-.039 3.72-.05 5.58-.005 1.39.031 2.778.08 4.165.15 1.34.063 2.683.18 4.015.34 1.091.114 2.17.334 3.218.657a7.369 7.369 0 012.188 1.1 5.961 5.961 0 012.093 3.037c.228.72.37 1.463.425 2.216.143 1.96.178 3.926.105 5.89a45.639 45.639 0 01-.226 3.66 131.112 131.112 0 01-.422 3.667 28.072 28.072 0 01-.726 3.652 12.73 12.73 0 01-.678 1.826 5.87 5.87 0 01-3.113 3.01c-.85.358-1.738.617-2.647.773a29.609 29.609 0 01-3.341.398 86.62 86.62 0 01-4.512.2c-1.063.022-2.133.034-3.585.054-1.357-.03-3.089-.054-4.824-.116a77.037 77.037 0 01-3.599-.232 17.848 17.848 0 01-3.694-.65 10.818 10.818 0 01-1.273-.464 5.767 5.767 0 01-2.491-2.017 8.199 8.199 0 01-.802-1.542c-.36-.938-.63-1.908-.807-2.898a41.702 41.702 0 01-.526-3.411zm1.55-3.312c.105 1.278.234 2.552.367 3.825a26.9 26.9 0 00.589 3.383c.188.817.463 1.612.82 2.37a5.124 5.124 0 002.559 2.528c.435.198.888.355 1.353.47.94.227 1.898.378 2.864.452 1.159.097 2.328.185 3.494.23 1.605.063 3.206.081 4.807.12v-.025h.443c1.859 0 3.712-.05 5.559-.152a38.774 38.774 0 004.033-.397c.78-.113 1.543-.317 2.275-.607a5.125 5.125 0 002.685-2.45 8.87 8.87 0 00.585-1.433 23.58 23.58 0 00.894-4.403c.11-.913.192-1.83.281-2.748a43.37 43.37 0 00.214-3.374c.052-1.899.006-3.8-.139-5.693a11.735 11.735 0 00-.277-1.888 5.823 5.823 0 00-.716-1.751 4.988 4.988 0 00-2.436-1.977c-.831-.325-1.7-.545-2.585-.655a43.816 43.816 0 00-4.114-.423c-1.29-.073-2.577-.143-3.86-.167a175.099 175.099 0 00-5.092-.017c-1.156.01-2.31.078-3.463.13-.701.032-1.399.069-2.09.134-.992.097-1.982.211-2.967.336-.711.085-1.412.238-2.093.459-.617.194-1.2.48-1.732.85a4.993 4.993 0 00-1.846 2.668 10.97 10.97 0 00-.414 2.607 76.367 76.367 0 00-.122 2.992c-.04 1.536.002 3.074.124 4.606zM6.044 34.101c.063.01.117.02.176.028l.535.06a.372.372 0 01.361.346.285.285 0 01.014.08v.885c0 .006-.01.015-.013.022-.16.027-3.248.019-3.35-.012v-.49c0-.16 0-.314.01-.469a.366.366 0 01.35-.361c.096-.016.197-.022.293-.034.146-.016.29-.035.44-.055v-.376a2.181 2.181 0 00-.011-.355H.48v.731l.179.028.535.06a.38.38 0 01.369.345 1.3 1.3 0 01.009.186v2.735a1.08 1.08 0 01-.012.2.373.373 0 01-.362.335c-.182.022-.357.039-.535.06-.063.007-.12.02-.179.028v.716c.146.029 4.268.023 4.369-.005v-.717c-.228-.027-.449-.056-.672-.08-.272-.03-.398-.142-.408-.415-.01-.299 0-.599 0-.897 0-.008.01-.013.013-.021.182-.029 3.242-.018 3.348.013v.866a.503.503 0 01-.014.107.37.37 0 01-.352.344c-.099.013-.196.02-.295.032l-.424.052v.73h4.362v-.728l-.21-.029c-.172-.019-.346-.036-.52-.06a.363.363 0 01-.342-.326 1.361 1.361 0 01-.016-.225V34.74c0-.071.004-.143.014-.213a.378.378 0 01.375-.34c.098-.013.204-.022.304-.033l.398-.052v-.729H6.05zm19.872-.725v.716c.024.006.049.01.074.013.206.025.417.052.627.074a.383.383 0 01.38.375.579.579 0 01.007.107v2.599a.528.528 0 01-.016.1c-.047-.06-.08-.1-.11-.141a854.23 854.23 0 01-2.725-3.59.612.612 0 00-.51-.272H19.93c-.036 0-.074.005-.12.008v.732c.055.008.105.018.15.024l.549.06a.389.389 0 01.383.362c.007.062.009.125.006.187v2.707c.001.049 0 .097-.005.146a.393.393 0 01-.398.404c-.1.01-.201.021-.305.034l-.38.05v.717c.142.027 3.38.024 3.48 0 .022-.238.02-.478-.007-.716l-.2-.026c-.172-.02-.34-.036-.507-.06a.376.376 0 01-.356-.372v-2.781l.03-.006c.027.039.06.08.087.115.909 1.194 1.823 2.392 2.726 3.593a.648.648 0 00.561.277h2.58c.035 0 .075-.007.117-.011v-4.043c0-.063 0-.127.005-.188a.388.388 0 01.378-.393c.106-.012.207-.021.309-.034.134-.015.264-.034.394-.05v-.732c-.208-.02-3.394-.011-3.491.015zm12.744 3.596a2.37 2.37 0 01-1.291 1.42 4.05 4.05 0 01-1.39.376c-.314.03-.63.044-.939.044h-5.29v-.736l.398-.053c.102-.013.204-.022.31-.033a.379.379 0 00.376-.35c.01-.062.015-.124.014-.187v-2.786c0-.35-.106-.464-.454-.501l-.567-.058v-.738c.04-.004.08-.008.12-.008 1.762 0 3.531-.005 5.294 0a5.267 5.267 0 011.81.288c.29.103.565.25.812.435a2.325 2.325 0 01.915 1.694c.044.402.004.808-.117 1.193zm-2.465-.132c.07-.287.098-.584.08-.88a2.395 2.395 0 00-.152-.865 1.003 1.003 0 00-.637-.595 2.02 2.02 0 00-.605-.09h-1.777c-.033 0-.067.01-.1.01v3.341c.044.001.085.006.123.006.57 0 1.14.005 1.71 0 .156-.002.311-.016.465-.042a.993.993 0 00.733-.477c.07-.128.124-.265.159-.408z"/><path fill="#ec1b2f" d="M19.33 34.989a2.586 2.586 0 01-1.085 3.354 4.424 4.424 0 01-1.41.499 9.754 9.754 0 01-2.608.117 6.33 6.33 0 01-1.713-.355 3.468 3.468 0 01-.7-.347 2.586 2.586 0 01.086-4.4 4.29 4.29 0 011.336-.505 8.771 8.771 0 011.884-.181 8.34 8.34 0 012.058.232 3.9 3.9 0 011.341.597c.35.256.628.597.811.989zm-2.346.414a1.353 1.353 0 00-1.077-1.099 3.365 3.365 0 00-1.664.016 1.332 1.332 0 00-1.002 1.016c-.06.248-.095.502-.103.757.023.218.036.437.08.65a1.333 1.333 0 001.045 1.114 3.42 3.42 0 001.638.013 1.352 1.352 0 001.08-1.115c.098-.445.099-.906.003-1.352zm30.736 2.49c.099.06.211.094.327.101.206.015.416.048.63.073v.711c-.004.006-.006.007-.009.01-.003.005-.009.008-.009.008a.45.45 0 01-.066.008H44.01a.193.193 0 01-.047-.015v-.723c.174-.018.341-.032.51-.054.103-.01.204-.032.302-.065a.23.23 0 00.13-.358 4.684 4.684 0 00-.258-.407c-.016-.025-.059-.035-.087-.045a.239.239 0 00-.07 0c-1.03 0-2.06.005-3.09 0a.193.193 0 00-.204.111c-.06.114-.136.22-.199.332a.248.248 0 00.18.41c.138.03.281.037.423.054l.246.027v.717c-.097.03-3.289.04-3.486.008v-.72l.41-.053.294-.03a.466.466 0 00.341-.191.852.852 0 00.08-.124 38024.986 38024.986 0 001.869-3.037.283.283 0 00-.234-.428l-.774-.088c-.054-.005-.105-.015-.16-.024v-.733a1.17 1.17 0 01.119-.008c1.326 0 2.652.007 3.978 0a.683.683 0 01.618.355c.445.69.902 1.376 1.352 2.063.41.624.82 1.245 1.224 1.873.06.1.143.182.243.242zm-3.764-1.738c-.096-.196-1.001-1.56-1.08-1.622-.333.54-.665 1.078-1.008 1.628.203.032 1.995.022 2.088-.006zM13.202 4.562c.045.675.084 1.353.13 2.024.068 1.108.142 2.211.209 3.317.063.907.115 1.815.175 2.718.068 1.054.146 2.109.217 3.162.055.84.11 1.683.172 2.527.08 1.149.167 2.298.248 3.447.075.937.14 1.876.214 2.814.086 1.084.178 2.167.268 3.253.005.093.02.185.034.275a31.17 31.17 0 003.764.264c.023-.08.048-.165.075-.25.323-1.186.636-2.374.972-3.554a9.97 9.97 0 01.732-1.873 2.348 2.348 0 011.83-1.303 14.01 14.01 0 014.378.006 2.3 2.3 0 011.758 1.254c.08.155.159.31.23.47.257.59.47 1.197.637 1.819.298 1.06.576 2.124.861 3.188l.08.243a25.185 25.185 0 003.776-.282c.702-8.411 1.228-16.843 1.759-25.291a21.359 21.359 0 00-2.613-.2 7689.463 7689.463 0 01-1.1 4.952 173.629 173.629 0 01-1.706 6.937c-.193.75-.456 1.48-.784 2.18a3.932 3.932 0 01-3.2 2.295c-.55.073-1.105.109-1.66.107a12.674 12.674 0 01-2.413-.15 3.898 3.898 0 01-2.462-1.451 5.443 5.443 0 01-.722-1.34 22.298 22.298 0 01-.784-2.505c-.875-3.357-1.63-6.74-2.36-10.131a89.3 89.3 0 00-.207-.894c-.873.014-1.745.079-2.61.194v.16c.031.538.072 1.079.102 1.618z"/></svg>