<svg xmlns="http://www.w3.org/2000/svg" width="41" height="31"><path d="M14.125 12.064c-1.12 1.741-1.223 2.58-1.25 3.142a2.7 2.7 0 00.147 1.28c.153.41.401.777.727 1.072 1.534 1.34 3.681 1.123 5.58 1.123h15.678a1.265 1.265 0 001.231-.668 10.473 10.473 0 001.815-5.74c0-3.91-2.59-8.828-9.131-11.052l-.738 1.032c5.193 2.416 7.342 5.58 7.342 10.008a6.28 6.28 0 01-1.084 3.656H19.197c-.91 0-1.04-1.014-.712-1.586a60.366 60.366 0 014.367-6.574c1.545-2.017 3.062-3.904 4.65-5.882.431-.55.145-1.077-.714-1.251A28.144 28.144 0 0020.892 0C8.382 0 3.81 7.047 3.81 12.272c0 5.663 4.61 12.241 17.116 12.241 6.943 0 11.487-2.192 14.12-5.01H32.39c-2.304 2.082-6.248 3.561-11.463 3.561-10.595 0-14.503-5.839-14.503-10.87C6.5 7.707 10.698 1.51 21.189 1.305c.402-.011.71.345.431.68-1.791 2.167-6.91 9.173-7.495 10.079zm25.22 16.003a1.56 1.56 0 011.108.4c.3.271.481.649.501 1.05a1.44 1.44 0 01-.48 1.074 1.486 1.486 0 01-1.126.38l-12.68.03c-2.246 0-2.53-.756-2.53-1.852v-2.593c-.393.228-.798.433-1.179.68l-1.792 1.147 3.49 2.58h-2.641l-2.32-1.625-1.829 1.088c-.293.174-.558.371-.838.558H3.549c-1.706 0-2.769-.763-2.769-1.859V26.07h1.777v2.942c.025.286.164.55.386.736.223.186.51.277.801.255h4.02a2.953 2.953 0 011.09-1.415H7.627a2.71 2.71 0 01.418-1.049c.212-.317.489-.587.813-.793a3.412 3.412 0 012.148-.64h6.99l2.312 1.655 1.778-1.074c.303-.182.592-.399.887-.596h2.997v2.941c0 .495.186 1.032 1.088 1.032h3.322v-3.948h1.806v3.934h6.137c.151.008.3-.043.413-.142a.563.563 0 00.192-.388.55.55 0 00-.156-.355.567.567 0 00-.352-.168l-5.577.019c-.118 0-.19-.064-.183-.167.022-.729.33-1.421.858-1.932a2.89 2.89 0 011.977-.808h4.915l.015.952H35.79c-.264.023-.51.137-.698.32a1.113 1.113 0 00-.33.686zm-20.584.64l-3.06-2.154v.542h-4.723c-.432 0-.995.582-.936.877h5.254v1.01h-4.138a1.18 1.18 0 00-.714.32 1.145 1.145 0 00-.349.691h6.575z"/></svg>