<svg xmlns="http://www.w3.org/2000/svg" width="38" height="40"><path fill="#006fbb" d="M34.823 5.393c1.841 2.169 2.966 5.281 2.966 9.447 0 12.845-10.546 14.897-18.613 14.897C11.18 29.737.63 27.685.63 14.84c0-4.167 1.132-7.279 2.964-9.447.06-.079.114-.158.18-.231C7.506.877 13.91 0 19.177 0c5.221 0 11.437.875 15.234 4.927.133.153.27.314.413.466zM6.829 7.91c4.269 2.42 9.123 2.463 12.346 8.574 2.967-6.295 7.877-6.385 12.19-8.895-.048-.086-.107-.17-.157-.256-2.542-3.752-7.168-4.634-12.033-4.634-4.849 0-9.596.94-12.083 4.75-.093.155-.18.306-.263.461zm12.346 19.13c7.175.062 13.988-1.992 13.989-12.2a20.038 20.038 0 00-.178-2.815 1.513 1.513 0 00-.047-.185c-2.43.863-4.863 1.725-7.299 2.588-2.903 1.173-4.742 3.05-6.465 6.743-1.714-3.693-3.613-5.334-6.451-6.51-2.411-.81-4.825-1.618-7.241-2.425-.035.144-.07.288-.109.43a12.33 12.33 0 00-.121 2.172c0 10.207 6.756 12.261 13.922 12.2zm1.015 8.99l2.053-1.69H17.93v1.69z"/><path fill="#006fbb" d="M34.098 34.335a1.591 1.591 0 011.203.415 1.571 1.571 0 01.506 1.16V40h-4.452a1.722 1.722 0 01-1.1-.429 1.701 1.701 0 01-.56-1.033 1.868 1.868 0 01-.678 1.048c-.34.261-.76.4-1.19.391h-4.106V35.82l-5.235 4.178h-5.308a1.74 1.74 0 01-1.384-.754v.754H9.88v-3.242s.115-.731-.784-.731h-.621v3.972H6.63v-3.972H5.27v3.98H3.33v-5.663h6.411a1.946 1.946 0 011.525.586 1.92 1.92 0 01.529 1.538v.638a1.881 1.881 0 011.684-.662h2.422s.117-.57-.761-.57h-3.022v-1.534h3.805a1.593 1.593 0 011.203.415 1.573 1.573 0 01.506 1.16v2.512l5.212-4.087h5.119s1.96-.067 1.96 2.512v.273a1.887 1.887 0 011.708-.684h2.422s.137-.569-.74-.569H30.29v-1.535zm-18.222 3.357h-2.007c-.114 0-.437.023-.437.366a.375.375 0 00.256.368c.05.017.104.024.158.019h2.03zm11.417.639c.463 0 .85-.227.85-1.278s-.828-1.12-.828-1.12h-1.75v2.398zm6.714-.639h-1.986c-.115 0-.461.023-.461.366a.376.376 0 00.257.368c.05.017.105.024.159.019h2.028z"/><path fill="#006fbb" d="M19.08 40h4.311v-1.67h-2.26z"/></svg>