<svg xmlns="http://www.w3.org/2000/svg" width="35" height="38"><path fill="#e50019" d="M17.318 20.181H5.96L.33 30.092h11.391l5.597-9.912zm5.768-10.171L17.407 0 11.71 10.01l5.696 10.027 5.679-10.027zm-.009 20.082h11.391l-5.63-9.912H17.48z"/><path fill="#1a1818" d="M22.57 37.856h.85V33.3h-.85zm9.54 0h.85V33.3h-.85zm-25.52 0h.85V33.3h-.85zm4.1-4.556H8.06v.773h.879v3.784h.879v-3.784h.879V33.3zm19.716 1.732H28.49V33.3h-.851v4.556h.85v-2.052h1.916v2.052h.85V33.3h-.85v1.732zm-26.566.306L3.043 33.3H2.06v4.556h.85v-2.824l.93 2.265.904-2.291v2.85h.85v-4.555h-.956l-.797 2.038zM17.897 33.3h-.842v3.254a.76.76 0 01-.748.642.756.756 0 01-.748-.642V33.3H14.7l.013 3.21a1.604 1.604 0 001.593 1.488A1.595 1.595 0 0017.9 36.51V33.3zm3.275 2.092a1.262 1.262 0 01.718 1.252c0 .88-.745 1.212-1.436 1.212H18.71V33.3h1.97a1.131 1.131 0 011.063 1.173 1.092 1.092 0 01-.571.919zm-.678 1.695a.58.58 0 00.559-.587.622.622 0 00-.559-.693h-.398v-.772h.372c.318 0 .412-.28.412-.52a.434.434 0 00-.426-.44h-.893v3.012zm-9.471-.712a1.275 1.275 0 000 .187 1.392 1.392 0 00.881 1.287c.172.067.355.1.54.095a1.329 1.329 0 001.304-.79c.074-.166.113-.345.115-.526a1.296 1.296 0 00-.442-.992 9.61 9.61 0 00-1.136-.686c-.24-.147-.352-.26-.358-.475a.5.5 0 01.518-.532.563.563 0 01.563.565c.006.08.008.16.008.214h.754v-.214a1.244 1.244 0 00-.807-1.241 1.235 1.235 0 00-.518-.074 1.263 1.263 0 00-1.238.801 1.273 1.273 0 00-.088.514 1.16 1.16 0 00.581.98c.443.293.997.513 1.183.7a.62.62 0 01.182.439.596.596 0 01-.62.588.706.706 0 01-.66-.588 1.577 1.577 0 01-.025-.253h-.737zm14.373-1.425c-.24-.147-.353-.26-.358-.475a.5.5 0 01.517-.532.563.563 0 01.564.565c.006.08.008.16.008.214h.753v-.214a1.244 1.244 0 00-.806-1.241 1.234 1.234 0 00-.519-.074 1.263 1.263 0 00-1.237.801 1.273 1.273 0 00-.088.514 1.16 1.16 0 00.58.98c.444.293.997.513 1.183.7a.62.62 0 01.182.439.596.596 0 01-.62.588.706.706 0 01-.66-.588 1.58 1.58 0 01-.025-.253h-.737a1.25 1.25 0 000 .186 1.392 1.392 0 00.881 1.288c.172.067.355.1.54.095a1.329 1.329 0 001.304-.79c.074-.166.113-.345.115-.526a1.296 1.296 0 00-.442-.993 9.61 9.61 0 00-1.136-.686z"/></svg>