<svg xmlns="http://www.w3.org/2000/svg" width="41" height="34"><path fill="#ca0015" d="M40.19 20.043c0 .011-.024 1.22-1.043 1.307 0 0-.6.093-1.68.232C35.358 28.744 28.432 34 20.207 34c-8.254 0-15.2-5.294-17.282-12.496a23.592 23.592 0 01-1.392-.249 1.224 1.224 0 01-.922-.362 1.204 1.204 0 01-.344-.923c-.115-1.285-.287-5.084 0-6.226 0-.057.085-.943 1.352-1.17.449-.096.886-.185 1.362-.277C5.132 5.198 12.026 0 20.205 0c8.243 0 15.182 5.283 17.274 12.468.587.077 1.167.16 1.74.248 0 0 .975.024.997 1.286.01 0 .153 4.278-.025 6.041zM12.922 6.16a13.53 13.53 0 00-5.073 5.56 199.72 199.72 0 0124.82.236 13.512 13.512 0 00-5.074-5.729 13.654 13.654 0 00-7.393-2.078 13.667 13.667 0 00-7.28 2.011zm14.246 8.42H25.45l-1.924 4.262h1.373l.344-.756h2.199l.413.756h1.374zm-4.948 2.678v.553h-3.23v1.03h3.711a1.272 1.272 0 00.755-1.233v-.206a1.218 1.218 0 00-.825-1.1h-2.335v-.622h2.817v-1.098h-3.092a1.366 1.366 0 00-.805.487 1.348 1.348 0 00-.295.888v.207c.007.265.107.52.283.72.176.2.416.334.68.377zm-4.947 0v.553h-3.23v1.036h3.71a1.284 1.284 0 00.756-1.238v-.207a1.218 1.218 0 00-.825-1.1h-2.336v-.622h2.817v-1.098h-3.092a1.367 1.367 0 00-.804.487 1.349 1.349 0 00-.295.888v.207a1.14 1.14 0 00.962 1.097zm-5.638-2.678v4.262h1.515V14.58zm-2.953 4.26h1.993v-4.262h-1.1v3.025l-1.58-3.025H5.796v4.264h1.306v-2.818zm18.898 8.94a13.514 13.514 0 005.073-5.707c-3.252.266-7.511.486-12.279.41 0 0-6.775-.03-12.651-.468a13.51 13.51 0 005.072 5.75 13.65 13.65 0 007.407 2.087c2.609.027 5.17-.692 7.378-2.071zm7.01-13.202h-1.306v2.956L31.84 14.58h-2.267v4.264h1.306v-2.887l1.649 2.885h2.061z"/><path fill="#ca0015" d="M26.339 15.75l-.619 1.237h1.237z"/></svg>