<svg xmlns="http://www.w3.org/2000/svg" width="41" height="29"><path fill="#004990" d="M33.02 24.22v3.438a1.301 1.301 0 00.375.959 1.195 1.195 0 00.942.353c.926.037 1.87.04 2.875 0a1.197 1.197 0 00.906-.376 1.302 1.302 0 00.354-.938V24.22h-1.214v3.163a.42.42 0 01-.11.306.396.396 0 01-.293.126 14.78 14.78 0 01-2.253 0 .438.438 0 01-.265-.153.463.463 0 01-.106-.293V24.22zm-28.807 0a1.322 1.322 0 00-.911.316 1.405 1.405 0 00-.477.862c-.019.137-.02.277-.003.415.022.314.161.608.388.82.227.211.525.324.831.316.514.046 2.612.162 2.869.183.344.03.393.17.393.359 0 .212-.095.336-.393.354-.647.04-1.861.028-2.471.008-.215-.008-.37-.064-.378-.333v-.23H2.846v.14c.005.986.331 1.443 1.243 1.516a25.45 25.45 0 003.197-.005 1.22 1.22 0 00.895-.419 1.283 1.283 0 00.316-.96v-.167a1.262 1.262 0 00-.305-.905 1.161 1.161 0 00-.843-.403c-.42-.038-2.662-.143-2.978-.172-.24-.021-.337-.147-.337-.353a.317.317 0 01.091-.229.299.299 0 01.226-.086 25.2 25.2 0 012.453-.008c.242.015.338.138.35.283v.22h1.217v-.195c-.022-.943-.464-1.302-1.304-1.337a29.656 29.656 0 00-2.854.01zm10.837.003h3.998a1.16 1.16 0 01.927.354c.121.123.215.272.276.437.06.164.086.34.075.515 0 .558-.219.844-.408.93.228.07.529.42.529 1.069a1.323 1.323 0 01-.337 1.075 1.219 1.219 0 01-1.03.386h-4.03zm1.218 1.046v.781h2.453c.26-.016.433-.157.433-.413s-.191-.351-.414-.368zm-.004 1.772v.9h2.449c.28-.01.51-.099.51-.457 0-.346-.279-.436-.483-.445zM8.95 24.22v3.438a1.302 1.302 0 00.375.959 1.196 1.196 0 00.942.353c.927.037 1.87.04 2.877 0a1.198 1.198 0 00.904-.377 1.304 1.304 0 00.354-.937V24.22h-1.213v3.163a.423.423 0 01-.112.306.399.399 0 01-.294.126c-.75.057-1.502.057-2.251 0a.436.436 0 01-.267-.152.462.462 0 01-.108-.294V24.22zm22.19.003a1.192 1.192 0 01.98.401 1.303 1.303 0 01.317 1.037c.024.207-.009.416-.094.606s-.219.35-.387.466c.173.11.314.266.407.452.093.185.135.394.122.603.016.512.02 1.202.02 1.202l-1.227-.003s.013-.76-.018-1.246a.462.462 0 00-.13-.33.435.435 0 00-.321-.13h-2.51v1.707H27.09V24.22zm-2.841 1.047v.916h2.51a.396.396 0 00.323-.125.422.422 0 00.114-.336c0-.301-.151-.433-.437-.456zm-6.098 2.87l-.432.845H20.39l2.522-4.765h1.36l2.518 4.765h-1.42l-.422-.845zm1.386-2.732l-.875 1.722h1.735zM.63 11.153C.63 4.99 9.902 0 20.8 0c10.9 0 20 4.991 20 11.153 0 6.162-9.101 11.154-19.998 11.154-11.047 0-20.17-4.994-20.17-11.153zm20.18 9.974c10.09 0 18.517-4.466 18.517-9.974 0-5.55-8.516-9.973-18.517-9.973-10.087 0-18.704 4.422-18.704 9.973 0 5.508 8.27 9.974 18.704 9.974zm5.215-3.934a5.458 5.458 0 00-1.738-.073c-.557.065-1.656.237-2.248.331-.77.122-.976.193-1.23.857-.088.253-.16.51-.217.772-.057.212-.179.762-.197.882-.017.09-.055.148-.141.148a.131.131 0 01-.096-.044.142.142 0 01-.038-.1c-.018-.108-.135-.627-.191-.886a3.933 3.933 0 00-.226-.772c-.256-.615-.392-.723-1.183-.85-.815-.134-1.358-.191-1.958-.255-.359-.037-.87-.095-1.043-.12-.095-.012-.151-.049-.151-.144 0-.096.056-.128.15-.14.192-.022.52-.057 1.04-.12a33.37 33.37 0 001.962-.255c.583-.103.81-.148 1.05-.51a3 3 0 00.315-.799c.066-.23.208-.72.234-.816.026-.098.063-.149.142-.149.079 0 .112.05.14.14.028.114.152.573.234.834.073.275.177.54.309.79.237.41.674.446 1.101.51.704.112 1.768.284 2.242.328.58.062 1.164.033 1.735-.087.236-.04 1.24-.204 1.796-.319a.811.811 0 00.392-.169.847.847 0 00.259-.348c.077-.187.144-.379.2-.573.047-.156.166-.607.192-.714.026-.106.08-.127.136-.127.055 0 .107.028.128.122.02.08.16.56.196.708.051.204.122.402.213.59.056.14.147.26.265.35a.79.79 0 00.401.16c.328.075 1.307.221 1.876.292a53.3 53.3 0 001.269.138c.104.012.144.074.144.14 0 .065-.046.13-.14.14-.093.01-.902.119-1.273.16-.49.063-1.482.192-1.915.271a.847.847 0 00-.424.213.888.888 0 00-.251.412 6.126 6.126 0 00-.2.63c-.06.212-.152.568-.173.619a.131.131 0 01-.045.065.125.125 0 01-.074.025.12.12 0 01-.076-.023.126.126 0 01-.048-.066c-.01-.03-.093-.38-.155-.61a6.846 6.846 0 00-.193-.64.869.869 0 00-.263-.433.827.827 0 00-.453-.204c-.43-.081-1.482-.241-1.78-.288zm5.827-4.2a5.724 5.724 0 00-2.163.012c-.466.064-1.43.191-1.953.319-.667.16-.831.356-.988.93a26.44 26.44 0 00-.212.888l-.13.615c-.026.116-.084.146-.145.146-.061 0-.108-.041-.136-.142-.018-.07-.094-.418-.142-.637-.053-.267-.126-.522-.208-.87a1.06 1.06 0 00-.317-.651 1.002 1.002 0 00-.652-.282 102.51 102.51 0 00-2.163-.298c-.239-.028-.97-.113-1.103-.134-.095-.012-.128-.054-.128-.139a.132.132 0 01.035-.097.121.121 0 01.094-.039c.144-.022.768-.098 1.107-.143.765-.083 1.624-.177 2.162-.293a.994.994 0 00.488-.157c.147-.094.269-.225.353-.381a5.48 5.48 0 00.28-.82c.06-.216.159-.58.195-.7.026-.098.061-.137.14-.137.08 0 .115.04.141.136.037.14.143.515.197.7a5.7 5.7 0 00.276.822c.09.155.214.286.364.38.15.094.319.149.494.16.648.128 1.473.255 1.962.33a5.637 5.637 0 002.155-.007c.333-.052.864-.167 1.482-.302a.782.782 0 00.355-.146.815.815 0 00.249-.3c.106-.215.19-.442.247-.676.063-.211.133-.474.16-.577a.138.138 0 01.045-.083.13.13 0 01.086-.033.131.131 0 01.088.028c.026.02.043.05.05.082.022.081.103.375.155.58.066.233.15.46.254.68a.835.835 0 00.226.277.806.806 0 00.318.155c.298.07.84.16 1.367.24.43.066 1.095.16 1.195.176a.132.132 0 01.101.04.14.14 0 01.04.104c0 .06-.044.123-.14.138-.097.016-.79.106-1.19.17a20.83 20.83 0 00-1.373.248.74.74 0 00-.372.192.776.776 0 00-.214.367c-.088.275-.17.595-.241.883-.062.268-.111.506-.124.564a.145.145 0 01-.048.086.137.137 0 01-.09.033.143.143 0 01-.089-.039.15.15 0 01-.045-.088 6.653 6.653 0 00-.123-.551 9.283 9.283 0 00-.241-.885.814.814 0 00-.237-.39.777.777 0 00-.405-.195 20.268 20.268 0 00-1.482-.298zm4.745-4.451a.141.141 0 01.006.195.132.132 0 01-.096.042c-.062.01-.912.12-1.317.179-.53.08-1.262.182-1.684.276a.894.894 0 00-.476.223.938.938 0 00-.277.456 15.51 15.51 0 00-.29 1.035c-.057.24-.128.609-.149.71a.153.153 0 01-.05.084.145.145 0 01-.09.035.129.129 0 01-.085-.034.137.137 0 01-.042-.084c-.02-.083-.095-.471-.154-.71a12.34 12.34 0 00-.288-1.036.914.914 0 00-.312-.498.867.867 0 00-.544-.195 37.39 37.39 0 00-1.965-.286 9.174 9.174 0 00-3.15-.031c-.796.1-1.657.175-2.031.223-1.492.183-3.993.495-5.313.731-1.32.237-1.689.685-2.066 1.967-.212.73-.517 2.136-.63 2.652-.09.43-.27 1.424-.29 1.517-.027.11-.073.148-.145.148-.073 0-.119-.043-.14-.148-.023-.084-.2-1.051-.302-1.514a41.215 41.215 0 00-.626-2.643 2.429 2.429 0 00-.72-1.39 2.301 2.301 0 00-1.399-.632c-1.533-.275-3.136-.483-4.866-.674C6.34 9.054 3.9 8.79 3.8 8.776a.13.13 0 01-.1-.037.138.138 0 01-.043-.101.142.142 0 01.043-.101.133.133 0 01.1-.037c.1-.011 2.475-.28 3.296-.37 1.67-.186 3.47-.414 4.948-.703 1.034-.211 1.538-.512 1.935-1.492a20.17 20.17 0 00.65-2.12c.141-.497.327-1.243.388-1.479.034-.118.071-.154.144-.154.074 0 .12.04.147.154.055.24.219.957.364 1.482.18.718.4 1.425.66 2.117.145.421.409.788.758 1.053.349.265.767.416 1.2.433 1.46.265 3.858.517 5.302.693.392.056 1.586.213 2.038.262a8.869 8.869 0 003.142-.021c.805-.108 1.61-.225 2.005-.292a.934.934 0 00.462-.152.972.972 0 00.33-.366c.124-.31.228-.627.309-.951.045-.166.136-.49.162-.584.033-.11.088-.127.14-.127.05 0 .107.024.134.127.023.09.117.463.157.595.08.32.183.632.31.936a.962.962 0 00.286.34c.12.089.26.147.406.17.567.126 1.196.2 1.704.276.438.06 1.268.177 1.325.177.035 0 .068.013.094.038z"/></svg>