<svg xmlns="http://www.w3.org/2000/svg" width="39" height="32"><path fill="#ed1a3b" d="M24.464 31.458a3.006 3.006 0 01-2.062.882 2.94 2.94 0 01-2.942-2.945 2.946 2.946 0 012.942-2.945 2.978 2.978 0 012.941 2.944 3.012 3.012 0 01-.88 2.064zm-3.603-1.386a1.739 1.739 0 001.541 1.183 1.788 1.788 0 001.623-1.861 1.763 1.763 0 00-1.623-1.86 1.71 1.71 0 00-1.626 1.86c-.016.23.013.46.085.678zm7.817-2.387h1.703V26.68H25.66v1.005h1.781v4.494h1.237zm2.704 4.494H29.91l2.324-5.499h1.542l2.248 5.499h-1.47l-.463-1.241h-2.248zm.852-2.17h1.544l-.771-2.014zm-27.56 2.17h1.239v-4.494h1.704V26.68H2.97v1.005h1.704zm8.261-.709a2.963 2.963 0 01-2.073.87 2.94 2.94 0 01-2.718-1.818 2.948 2.948 0 012.144-4.015 2.94 2.94 0 013.02 1.252c.324.484.496 1.054.496 1.636a2.972 2.972 0 01-.869 2.075zm-3.697-2.075a1.749 1.749 0 001.624 1.862 1.775 1.775 0 001.626-1.862 1.75 1.75 0 00-1.626-1.86 1.718 1.718 0 00-1.623 1.86zm7.36 2.784h.619v-2.092l2.168-3.407H17.99l-1.394 2.322-1.317-2.322h-1.47l2.169 3.407v2.092zm21.894-20.454c0 6.463-8.556 11.72-19.08 11.72C8.89 23.446.33 18.192.33 11.726.33 5.26 8.89 0 19.412 0c10.52 0 19.08 5.263 19.08 11.725zM20.324 1.575l.743.596c1.311 1.05 2.33 3.278 2.793 6.109l.05.3.299-.053c2.824-.48 4.812-1.38 5.449-2.47a1.523 1.523 0 00.141-1.308c-.572-1.61-3.92-2.835-8.529-3.116zm1.79 6.885c-.456-2.554-1.463-4.082-2.699-4.082-1.236 0-2.25 1.528-2.703 4.082l-.058.33.33.025a32.459 32.459 0 004.857 0l.33-.024-.055-.331zM8.937 5.257c.002.284.081.56.23.802.64 1.092 2.625 1.99 5.45 2.47l.296.054.052-.3c.463-2.831 1.483-5.06 2.793-6.109l.743-.596-.949.056c-4.61.283-7.955 1.506-8.525 3.116a1.46 1.46 0 00-.09.507zm9.374 16.734l-.701-.6c-1.8-1.543-2.925-5.21-2.925-9.567l.02-1.024-.253-.053c-4.332-.778-7.414-2.6-7.85-4.643l-.106-.489-.386.321c-2.071 1.737-3.163 3.8-3.163 5.966 0 5.097 6.21 9.402 14.443 10.02zm-1.85-10.523c0 4.046 1.268 7.1 2.95 7.101 1.681.002 2.95-3.055 2.95-7.1l-.005-.44-.325.027a30.15 30.15 0 01-5.24 0l-.326-.027v.44zm4.97 10.453c8.235-.617 14.443-4.922 14.446-10.023 0-2.166-1.095-4.231-3.166-5.965l-.381-.32-.109.488c-.438 2.042-3.519 3.864-7.849 4.643l-.255.047.02 1.03c0 4.357-1.119 8.024-2.92 9.566l-.702.6.919-.066z"/></svg>