<svg width="16" height="16" fill="none" xmlns="http://www.w3.org/2000/svg"><g clip-path="url(#clip0)" fill="#B5B5B5"><path d="M9.198 12.613H1.201c-.663 0-1.201.538-1.201 1.202v2.184h10.4v-2.184c0-.664-.539-1.202-1.202-1.202zm6.587.168l-7.3-7.3 1.41-1.407c.232.205.59.195.81-.025a.594.594 0 000-.837L7.665.174a.587.587 0 00-.835 0 .587.587 0 000 .835L6.805.984l-3.86 3.858.025.027a.587.587 0 00-.835 0 .587.587 0 000 .835l3.038 3.04c.232.23.607.23.837 0a.594.594 0 000-.837l.025.024 1.41-1.407 7.297 7.297a.738.738 0 001.043 0 .735.735 0 000-1.04z"/></g><defs><clipPath id="clip0"><path fill="#fff" d="M0 0h16v16H0z"/></clipPath></defs></svg>