<svg width="12" height="12" fill="none" xmlns="http://www.w3.org/2000/svg"><path d="M6 0C2.684 0 0 2.684 0 6s2.684 6 6 6 6-2.684 6-6-2.684-6-6-6zm0 11.063A5.06 5.06 0 01.937 6 5.06 5.06 0 016 .937 5.06 5.06 0 0111.063 6 5.06 5.06 0 016 11.063z" fill="#B5B5B5"/><path d="M5.794 3.79c-.2 0-.39.025-.574.076a2.467 2.467 0 00-.574.232L4.354 3.3a2.91 2.91 0 01.72-.283c.275-.075.555-.112.84-.112.343 0 .626.049.85.146.222.091.4.209.53.351.132.143.223.3.275.472.051.171.077.337.077.497 0 .194-.037.369-.112.523a1.85 1.85 0 01-.265.428 4.36 4.36 0 01-.352.378 4.167 4.167 0 00-.351.36c-.109.12-.2.248-.274.385a1.02 1.02 0 00-.103.463v.103c0 .034.003.069.008.103h-.891a1.703 1.703 0 01-.034-.369c0-.188.031-.357.094-.505.063-.149.143-.286.24-.412s.2-.243.308-.351c.115-.109.22-.217.318-.326.097-.109.177-.22.24-.334a.77.77 0 00.094-.377.598.598 0 00-.197-.463c-.126-.126-.317-.189-.575-.189zm.67 4.628c0 .2-.067.363-.198.488a.68.68 0 01-.489.189.699.699 0 01-.488-.189.646.646 0 01-.197-.488c0-.2.065-.363.197-.489a.682.682 0 01.488-.197c.195 0 .357.066.489.197a.646.646 0 01.197.489z" fill="#B5B5B5"/></svg>