<svg width="76" height="60" fill="none" xmlns="http://www.w3.org/2000/svg"><g clip-path="url(#clip0)" filter="url(#filter0_d)"><path d="M66.764 15.597a7.517 7.517 0 00-5.288-5.289C56.78 9.023 37.999 9.023 37.999 9.023s-18.78 0-23.475 1.236c-2.52.692-4.597 2.768-5.288 5.338C8 20.292 8 30.028 8 30.028s0 9.786 1.236 14.432a7.518 7.518 0 005.288 5.288C19.268 51.033 38 51.033 38 51.033s18.78 0 23.476-1.236a7.517 7.517 0 005.288-5.288C68 39.814 68 30.078 68 30.078s.05-9.786-1.236-14.481z" fill="red"/><path d="M32.02 39.023l15.617-8.995-15.617-8.995v17.99z" fill="#fff"/></g><defs><clipPath id="clip0"><path fill="#fff" transform="translate(8)" d="M0 0h60v60H0z"/></clipPath><filter id="filter0_d" x="0" y="-8" width="76" height="76" filterUnits="userSpaceOnUse" color-interpolation-filters="sRGB"><feFlood flood-opacity="0" result="BackgroundImageFix"/><feColorMatrix in="SourceAlpha" values="0 0 0 0 0 0 0 0 0 0 0 0 0 0 0 0 0 0 127 0"/><feOffset/><feGaussianBlur stdDeviation="4"/><feColorMatrix values="0 0 0 0 1 0 0 0 0 0 0 0 0 0 0 0 0 0 0.3 0"/><feBlend in2="BackgroundImageFix" result="effect1_dropShadow"/><feBlend in="SourceGraphic" in2="effect1_dropShadow" result="shape"/></filter></defs></svg>