<svg xmlns="http://www.w3.org/2000/svg" width="41" height="33" viewBox="0 0 41 33">
    <path fill="#e50019" d="M6.004 32.792c-.145 0-.135-.065-.062-.29.073-.226.516-1.544.58-1.738.065-.194.565-1.642.734-2.144.17-.501.57-1.716.61-1.848a.165.165 0 0 1 .165-.138c.33-.011.66 0 .987.035.205.021.21.107.27.292.06.185.413 1.268.627 1.856.213.588.563 1.594.669 1.891.105.297.556 1.601.556 1.601.05.11.085.227.105.346 0 .104-.04.157-.175.157h-.967c-.277 0-.334-.316-.52-.906a4.866 4.866 0 0 0-.267-.733s-.629.008-1.085.008h-1.05s-.46 1.373-.519 1.512c-.051.113-.116.106-.26.106-.143 0-.252-.007-.398-.007zm1.79-3.552c-.328 1.005-.408 1.272-.408 1.272s.347.014.872.014c.526 0 .832-.003.832-.003s-.041-.151-.38-1.2c-.338-1.05-.477-1.391-.477-1.391s-.109.302-.438 1.308zM21.234 32.792c-.145 0-.135-.065-.062-.29.073-.226.516-1.544.58-1.738.065-.194.565-1.642.734-2.144.17-.501.57-1.716.61-1.848a.165.165 0 0 1 .165-.138c.33-.011.66 0 .987.035.205.021.21.107.27.292.06.185.414 1.268.627 1.856.213.588.563 1.594.669 1.891.105.297.556 1.601.556 1.601.05.11.085.227.105.346 0 .104-.04.157-.174.157h-.967c-.278 0-.334-.316-.52-.906a4.865 4.865 0 0 0-.268-.733s-.629.008-1.085.008h-1.05s-.46 1.373-.519 1.512c-.048.113-.116.106-.26.106-.143 0-.252-.007-.398-.007zm1.791-3.552c-.33 1.005-.408 1.272-.408 1.272s.347.014.871.014c.525 0 .832-.003.832-.003s-.041-.151-.38-1.2c-.338-1.05-.477-1.391-.477-1.391s-.108.302-.438 1.308zM12.26 27.002c0-.256.065-.362.297-.362.232 0 .465.005.632.005.167 0 .466-.008.466.166 0 .173.025 2.356.025 2.803 0 .446.016 2.51.016 2.792 0 .283-.03.409-.253.409-.222 0-.557.015-.78.012-.225-.002-.373-.027-.373-.342s-.013-3.095-.013-3.59c0-.493-.017-1.637-.017-1.893zM17.78 29.938c-.289 0-.953.004-.953.004 0 .737.013 2.227.013 2.465 0 .283-.029.409-.24.409-.212 0-.531.015-.746.012-.214-.003-.355-.027-.355-.342 0-.316-.012-3.096-.012-3.59 0-.493-.017-1.638-.017-1.894 0-.255.063-.362.284-.362.221 0 .444.005.603.005.158 0 .445-.008.445.166 0 .144.017 1.683.027 2.45 0 0 .31.01.957.01.648 0 1.081-.01 1.081-.01 0-.767.017-2.306.017-2.45 0-.174.286-.166.446-.166.16 0 .381-.005.603-.005.22 0 .283.106.283.362s-.016 1.401-.016 1.895c0 .493-.012 3.274-.012 3.589 0 .314-.14.34-.356.342-.216.003-.534-.012-.745-.012-.212 0-.24-.126-.24-.41 0-.237.009-1.728.012-2.464 0 .002-.791-.004-1.08-.004zM27.767 32.572c.011.193 0 .232.093.252.227.035.457.058.687.069.247.011.573.059.573-.291s-.007-1.538-.007-1.649l-.009-1.423v-2.062c0-.06.017-.076.086-.076.07 0 .752.015 1.01.015h.425c.07 0 .139.017.15-.083.01-.1.028-.309.03-.415.002-.107 0-.177-.179-.188-.179-.011-1.362-.033-1.615-.038a74.35 74.35 0 0 0-1.417 0c-.185.005-1.373.02-1.462.02-.089 0-.132.103-.132.322 0 .219.017.355.14.355.121 0 1.043 0 1.288.006h.214c.037 0 .083 0 .083.032 0 .033.02.9.02 1.234 0 .334-.01 1.213-.01 1.565 0 .353.02 1.513.02 1.66 0 .147 0 .502.012.695zM32.813 32.959a6.253 6.253 0 0 1-1.507-.259.203.203 0 0 1-.157-.23v-.25c0-.124.015-.268.09-.268.527.246 1.1.379 1.68.39.66 0 .76-.378.76-.616 0-1.314-2.579-1.587-2.579-3.44 0-1.36 1.02-1.605 1.838-1.605.45-.01.898.07 1.318.235.168.08.19.138.19.227v.455c0 .065-.037.111-.09.111a2.59 2.59 0 0 0-1.35-.42c-.611 0-.872.302-.872.657 0 1.055 2.666 1.521 2.666 3.372.002 1.3-1.113 1.64-1.987 1.64zM35.83 26.993c0-.12.022-.208.203-.208.18 0 .306-.015.467-.015.16 0 .297 0 .425.004s.255.022.255.508c0 .487-.012 1.747-.012 1.982v1.348c0 .623-.105 1.79 1.183 1.79.244 0 1.176 0 1.176-1.237 0-.484-.022-2.309-.027-3.058 0-.397-.017-1.007-.017-1.128s.024-.176.11-.176.297.006.436.006c.138 0 .222 0 .222.096 0 .095.026.729.026 2.464v1.844c0 .383.038 1.789-1.87 1.789-1.907 0-2.558-1.007-2.558-2.028 0-1.021-.019-3.861-.019-3.981zM.11 26.801c0-.192.102-.201.278-.201h2.069c1.15 0 2.76.361 2.76 3.234 0 1.736-.86 2.942-2.554 2.942-.41 0-1.8.016-2.157-.004-.358-.02-.363-.09-.363-.236 0-.145-.023-1.649-.023-2.691 0-1.042-.01-2.851-.01-3.044zm2.15 5.341c.77 0 1.575-.124 1.575-2.483 0-2.358-.895-2.375-1.647-2.375h-.487c-.08 0-.214-.012-.214.138v4.697s.423.023.773.023zM40.28 0H.11v23.704h40.17z"/>
    <path fill="#fff" d="M19.231 13.892l-4.854.49-8.683-8.629s5.671-.345 15.988.577c10.317.923 16.029 2.496 16.029 4.15 0 4.388-27.926 8.681-27.926 8.681l2.499-3.878L2.71 5.861l2.269-.107 9.168 9.11s22.498-1.972 22.498-4.333c0-1.422-10.047-2.671-14.963-3.073-4.403-.36-9.263-.335-9.263-.335z"/>
</svg>