<svg xmlns="http://www.w3.org/2000/svg" width="35" height="38" viewBox="0 0 35 38">
    <path fill="#e50019" d="M17.318 20.181H5.96L.33 30.092h11.391l5.597-9.912zM23.086 10.01L17.407 0 11.71 10.01l5.696 10.027 5.679-10.027zM23.077 30.092h11.391l-5.63-9.912H17.48z"/>
    <path fill="#1a1818" d="M22.57 37.856h.85V33.3h-.85zM32.11 37.856h.85V33.3h-.85zM6.59 37.856h.85V33.3h-.85zM10.69 33.3H8.06v.773h.879v3.784h.879v-3.784h.879V33.3zM30.406 35.032H28.49V33.3h-.851v4.556h.85v-2.052h1.916v2.052h.85V33.3h-.85v1.732zM3.84 35.338L3.043 33.3H2.06v4.556h.85v-2.824l.93 2.265.904-2.291v2.85h.85v-4.555h-.956l-.797 2.038zM17.897 33.3h-.842v3.254a.76.76 0 0 1-.748.642.756.756 0 0 1-.748-.642V33.3H14.7l.013 3.21a1.604 1.604 0 0 0 1.593 1.488A1.595 1.595 0 0 0 17.9 36.51V33.3zM21.172 35.392a1.262 1.262 0 0 1 .718 1.252c0 .88-.745 1.212-1.436 1.212H18.71V33.3h1.97a1.131 1.131 0 0 1 1.063 1.173 1.092 1.092 0 0 1-.571.919zm-.678 1.695a.58.58 0 0 0 .559-.587.622.622 0 0 0-.559-.693h-.398v-.772h.372c.318 0 .412-.28.412-.52a.434.434 0 0 0-.426-.44h-.893v3.012zM11.023 36.375a1.275 1.275 0 0 0 0 .187 1.392 1.392 0 0 0 .881 1.287c.172.067.355.1.54.095a1.329 1.329 0 0 0 1.304-.79c.074-.166.113-.345.115-.526a1.296 1.296 0 0 0-.442-.992 9.61 9.61 0 0 0-1.136-.686c-.24-.147-.352-.26-.358-.475a.5.5 0 0 1 .518-.532.563.563 0 0 1 .563.565c.006.08.008.16.008.214h.754v-.214a1.244 1.244 0 0 0-.807-1.241 1.235 1.235 0 0 0-.518-.074 1.263 1.263 0 0 0-1.238.801 1.273 1.273 0 0 0-.088.514 1.16 1.16 0 0 0 .581.98c.443.293.997.513 1.183.7a.62.62 0 0 1 .182.439.596.596 0 0 1-.62.588.706.706 0 0 1-.66-.588 1.577 1.577 0 0 1-.025-.253h-.737zM25.396 34.95c-.24-.147-.353-.26-.358-.475a.5.5 0 0 1 .517-.532.563.563 0 0 1 .564.565c.006.08.008.16.008.214h.753v-.214a1.244 1.244 0 0 0-.806-1.241 1.234 1.234 0 0 0-.519-.074 1.263 1.263 0 0 0-1.237.801 1.273 1.273 0 0 0-.088.514 1.16 1.16 0 0 0 .58.98c.444.293.997.513 1.183.7a.62.62 0 0 1 .182.439.596.596 0 0 1-.62.588.706.706 0 0 1-.66-.588 1.58 1.58 0 0 1-.025-.253h-.737a1.25 1.25 0 0 0 0 .186 1.392 1.392 0 0 0 .881 1.288c.172.067.355.1.54.095a1.329 1.329 0 0 0 1.304-.79c.074-.166.113-.345.115-.526a1.296 1.296 0 0 0-.442-.993 9.61 9.61 0 0 0-1.136-.686z"/>
</svg>