<svg xmlns="http://www.w3.org/2000/svg" width="31" height="37" viewBox="0 0 31 37">
    <path fill="#ec2028" d="M11.396 7.83c.28-.93.988-.458.988-.458s1.836 1.424 6.871 4.69c5.035 3.264 11.312-1.267 11.312-1.267L15.66 0A37.532 37.532 0 0 1 .749 9.598l.025.01L19.83 23.225c-.28.931-.988.458-.988.458s-1.836-1.424-6.871-4.69C6.937 15.728.66 20.26.66 20.26l14.908 10.795a37.53 37.53 0 0 1 14.91-9.6l-.025-.01z"/>
    <path fill="#105caa" d="M.51 35.335l2.293.012c.04.22-.022.22.099.334a.86.86 0 0 0 .728.176c.201-.036.514-.099.528-.353.016-.277-.171-.373-.407-.405-.326-.043-.655-.055-.98-.108a4.395 4.395 0 0 1-1.64-.434 1.266 1.266 0 0 1-.39-1.097 1 1 0 0 1 .276-.67 1.84 1.84 0 0 1 .83-.494 5.1 5.1 0 0 1 1.52-.18 3.977 3.977 0 0 1 1.806.327 1.607 1.607 0 0 1 .74 1.179H3.962c.015-.029-.039-.156-.047-.188-.075-.275-.336-.356-.586-.412a.837.837 0 0 0-.624.065c-.112.07-.2.144-.2.245a.246.246 0 0 0 .14.197c.203.092.42.15.642.168.609.081 1.209.217 1.794.406.301.098.573.274.788.51.16.19.247.43.247.68a1.206 1.206 0 0 1-.33.814 2.034 2.034 0 0 1-.918.566 4.87 4.87 0 0 1-1.487.193 3.835 3.835 0 0 1-2.184-.452 1.477 1.477 0 0 1-.464-.46 1.51 1.51 0 0 1-.223-.62zM9.822 32.201h1.696v3.248c0 .666-.407 1.139-1.22 1.417a4.314 4.314 0 0 1-1.338.13 4.92 4.92 0 0 1-1.249-.091c-.894-.365-1.341-.85-1.341-1.458V32.2h1.707v2.781c0 .506.064.883.883.883.835 0 .85-.393.85-.9zM20.904 32.201h1.694v3.248c0 .666-.406 1.139-1.22 1.417a4.312 4.312 0 0 1-1.338.13 4.915 4.915 0 0 1-1.248-.091c-.895-.365-1.342-.85-1.342-1.458V32.2h1.707v2.781c0 .506.064.883.883.883.835 0 .85-.392.85-.9zM11.86 32.24h5.25v.998l-2.565 2.35h2.566v1.309H11.86v-1.124l2.505-2.316h-2.5zM23.02 36.885V32.23h1.683v1.723l1.815-1.723h2.107l-2.417 2.256 2.517 2.399h-2.272l-1.735-1.666.017 1.666zM30.64 32.23v4.655h-1.68V32.23z"/>
</svg>