<svg xmlns="http://www.w3.org/2000/svg" viewBox="0 0 78 12">
    <g fill="#C0CAD7" fill-rule="evenodd" stroke="#C0CAD7">
        <path d="M6 9.6L2.473 10.854 2.576 7.112.294 4.146 3.884 3.088 6 0 8.116 3.088 11.706 4.146 9.424 7.112 9.527 10.854zM54 9.6L50.473 10.854 50.576 7.112 48.294 4.146 51.884 3.088 54 0 56.116 3.088 59.706 4.146 57.424 7.112 57.527 10.854zM22 9.6L18.473 10.854 18.576 7.112 16.294 4.146 19.884 3.088 22 0 24.116 3.088 27.706 4.146 25.424 7.112 25.527 10.854zM70 9.6L66.473 10.854 66.576 7.112 64.294 4.146 67.884 3.088 70 0 72.116 3.088 75.706 4.146 73.424 7.112 73.527 10.854zM38 9.6L34.473 10.854 34.576 7.112 32.294 4.146 35.884 3.088 38 0 40.116 3.088 43.706 4.146 41.424 7.112 41.527 10.854z" transform="translate(1)"/>
    </g>
</svg>